<svg width="30" height="35" viewBox="0 0 30 35" fill="none" xmlns="http://www.w3.org/2000/svg">
<g clip-path="url(#clip0_100_1715)">
<mask id="mask0_100_1715" style="mask-type:luminance" maskUnits="userSpaceOnUse" x="0" y="0" width="30" height="35">
<path d="M29.4115 0H0.801758V34.6318H29.4115V0Z" fill="white"/>
</mask>
<g mask="url(#mask0_100_1715)">
<path fill-rule="evenodd" clip-rule="evenodd" d="M28.9469 15.7355C29.7855 17.0309 29.4889 18.8801 28.0575 19.7839L5.23407 34.194C5.17373 34.2323 5.1128 34.2677 5.05139 34.3009C5.05952 34.2805 5.06376 34.259 5.06376 34.2364L5.16312 21.9476L5.15523 21.9471C5.76942 21.523 5.96522 20.6877 5.58648 20.0275C5.18865 19.3341 4.30754 19.0965 3.61847 19.4969C2.92941 19.8972 2.69332 20.7839 3.09115 21.4773C3.1829 21.6372 3.30035 21.7729 3.43524 21.8821V34.6318C2.03432 34.4995 0.801758 33.3361 0.801758 31.7325L0.801759 3.22294L10.3463 8.98587L10.3507 8.97923C10.4085 9.72657 11.0295 10.3149 11.7869 10.3149C12.5826 10.3149 13.2276 9.66576 13.2276 8.86505C13.2276 8.06436 12.5826 7.41527 11.7869 7.41527C11.6034 7.41527 11.4279 7.44979 11.2665 7.51276L1.1019 1.61609L1.09714 1.6209C1.81541 0.160587 3.70666 -0.514138 5.2341 0.450248L27.7943 14.6942C27.7359 14.6748 27.6822 14.6642 27.6344 14.6642L19.2012 19.2138C18.5247 18.8729 17.6928 19.1179 17.3096 19.7859C16.9117 20.4793 17.1478 21.366 17.8369 21.7663C18.526 22.1667 19.4071 21.9291 19.8049 21.2357C19.9089 21.0545 19.9696 20.86 19.9901 20.6645L28.9551 15.7516C28.9525 15.7463 28.9496 15.7409 28.9469 15.7355ZM5.52736 9.54995C5.53831 9.48439 5.544 9.41702 5.544 9.34833C5.544 8.68107 5.00648 8.14017 4.34344 8.14017C3.68038 8.14017 3.14286 8.68107 3.14286 9.34833C3.14286 10.0156 3.68038 10.5565 4.34344 10.5565C4.53224 10.5565 4.71087 10.5126 4.8698 10.4345L7.94514 12.3687V25.7792C7.79436 25.9812 7.70503 26.2322 7.70503 26.5043C7.70503 27.1715 8.24253 27.7123 8.90559 27.7123C9.56865 27.7123 10.1061 27.1715 10.1061 26.5043C10.1061 26.1089 9.91754 25.7581 9.62593 25.5376V22.034L20.8477 15.2584C21.0109 15.342 21.1957 15.3891 21.3915 15.3891C22.0545 15.3891 22.592 14.8482 22.592 14.181C22.592 13.5137 22.0545 12.9728 21.3915 12.9728C20.7284 12.9728 20.1909 13.5137 20.1909 14.181C20.1909 14.232 20.1941 14.2823 20.2002 14.3317L17.1895 15.9932L5.52736 9.54995Z" fill="white"/>
<path d="M14.7443 16.3086C15.0436 16.4988 15.0436 16.9374 14.7443 17.1276L10.3659 19.9099C10.0448 20.114 9.62598 19.8822 9.62598 19.5004V13.9358C9.62598 13.554 10.0448 13.3222 10.3659 13.5262L14.7443 16.3086Z" fill="white"/>
</g>
</g>
<defs>
<clipPath id="clip0_100_1715">
<rect width="28.6903" height="34.6449" fill="white" transform="translate(0.801758)"/>
</clipPath>
</defs>
</svg>
