<svg width="52" height="31" viewBox="0 0 52 31" fill="none" xmlns="http://www.w3.org/2000/svg">
<path fill-rule="evenodd" clip-rule="evenodd" d="M27.9434 13.2552C30.828 11.3167 33.1998 9.91627 36.5238 8.76737C39.01 7.90805 42.0247 7.2338 44.6752 7.08386L47.8171 6.9447C47.8315 6.76142 43.679 5.50871 43.2601 5.4014C38.2315 4.11338 32.0233 4.07903 27.0743 5.51732C26.7414 6.14726 26.1028 6.95663 25.6997 7.63188C25.2373 8.40659 24.9085 9.14319 24.5186 9.94526C24.4479 10.0905 24.4269 10.2051 24.442 10.3028C24.4798 10.5467 24.7431 10.6853 25.0227 10.9346C25.6193 11.4666 27.3828 13.0764 27.9434 13.2552Z" fill="white"/>
<path fill-rule="evenodd" clip-rule="evenodd" d="M33.0787 2.91172C34.5 2.88921 35.8808 2.92272 37.291 3.09985C37.9064 3.17717 41.7071 3.58195 44.4721 4.72827C44.614 4.60777 41.1075 2.77746 40.8147 2.63819C39.5047 2.01538 38.0147 1.4617 36.6201 1.06031C35.39 0.706266 34.3737 0.48861 33.1369 0.247268C32.528 0.128449 32.5061 0.138748 32.0445 0.505112C31.0741 1.27539 29.8037 2.28594 29.0248 3.23354C30.4041 3.12267 31.6721 2.934 33.0787 2.91172Z" fill="white"/>
<path fill-rule="evenodd" clip-rule="evenodd" d="M33.31 25.9215C33.1172 25.7781 34.3435 20.3046 29.0798 19.5381C27.6084 19.3238 25.8804 19.4757 24.6238 20.3138C23.6148 20.9868 22.9041 22.0426 22.6127 23.6234C22.5425 23.5789 22.3676 22.7304 22.3125 22.5895C21.3402 20.0974 18.864 19.0691 16.2461 19.394C13.7956 19.6982 11.7444 21.4058 11.3672 23.7816L11.2158 24.8297C10.9625 24.6244 10.9135 24.3421 10.1288 23.8835C9.67731 23.6195 9.18547 23.4198 8.6903 23.2517C7.60224 22.8824 6.45616 22.7186 5.34999 22.4133C4.92228 22.2953 4.24703 22.0901 4.00135 21.6972C3.68854 21.1969 3.91533 20.5664 4.39984 20.2959C5.47216 19.6973 6.82241 20.1329 7.94138 20.3538L7.93467 17.7453C0.389378 16.5444 -0.389322 21.6133 1.23464 23.4165C2.8562 25.2171 6.84012 25.0922 8.04105 26.0411C8.5468 26.4407 8.45833 27.2466 7.94753 27.6268C7.43925 28.0052 6.59151 28.056 5.97932 28.0416C4.58993 28.009 3.58789 27.5813 2.43492 26.859C1.85007 26.4926 2.06749 26.3255 1.13835 27.2762L0 28.4812C0.125929 28.8581 2.33793 29.8313 2.80233 29.9846C5.28706 30.8045 9.66812 30.8639 11.2054 28.4095C11.5362 27.8814 11.5876 27.495 11.7307 26.9073C12.4228 27.8852 12.5063 28.4782 14.0205 29.2891C14.5764 29.5868 15.1191 29.8063 15.74 29.9195C16.4908 30.0564 17.234 30.0817 17.9514 30.0452L17.9275 27.7423C17.7417 27.7559 17.0486 27.7373 16.6822 27.6676C16.3212 27.599 16.0209 27.4813 15.7047 27.2953C15.0993 26.9394 14.7847 26.3867 14.6201 25.7247L22.5823 25.7346L22.6135 29.9048L25.9828 29.9001L25.9842 24.2336C25.9843 23.7595 26.0821 23.372 26.1813 23.1309C27.0141 21.4735 29.0821 21.7005 29.6676 22.9759C29.9123 23.509 29.9285 23.7349 29.9287 24.299L29.9313 29.8683L33.2566 29.8726L33.2935 27.6726L33.3585 27.8476C34.0638 30.2283 38.0296 30.5694 39.9657 29.3518L40.7595 28.825L40.7747 29.8691C41.7267 29.8554 43.0011 29.8898 43.988 29.8994L44.013 25.742C44.0423 25.717 44.4132 27.7472 46.8583 29.2081C48.3372 30.0917 50.2501 30.5257 51.9673 30.431V27.9646C45.887 27.9566 46.2654 20.3354 51.9673 20.5348V18.0625C49.4317 18.0361 46.6629 18.7592 45.0307 20.8347C44.3859 21.6548 44.3146 22.0127 43.942 22.9617C43.7008 22.298 43.786 21.9638 43.325 21.2686C42.9969 20.7738 42.6196 20.401 42.0919 20.1147C40.6852 19.3259 39.5733 19.4662 37.9829 19.4786L37.9801 21.8991C38.6811 21.9241 39.3245 21.887 39.9384 22.2593C40.5316 22.619 40.7828 23.132 40.7459 23.6989C40.6365 23.7417 38.7775 23.5736 38.4582 23.5674C37.6438 23.5516 36.9193 23.6288 36.1071 23.7308C34.7349 23.9031 33.8208 24.6041 33.31 25.9215ZM38.1762 25.496C38.7537 25.4383 39.3159 25.4412 39.8948 25.4749C40.6386 25.5181 40.963 25.3706 40.7857 26.286C40.611 27.188 39.8376 27.7436 38.9746 27.9257C36.2786 28.4947 35.0181 25.8115 38.1762 25.496ZM16.6011 21.7447C19.0063 21.342 19.8666 23.8463 19.3791 23.8939C19.1063 23.9206 16.2936 23.8879 15.744 23.8879C14.4772 23.8879 14.4687 24.0078 14.6758 23.4202C15.0002 22.5001 15.6224 21.9086 16.6011 21.7447Z" fill="white"/>
<path fill-rule="evenodd" clip-rule="evenodd" d="M25.2616 15.4797C25.6952 15.0975 26.1134 14.723 26.5556 14.3496C26.9844 13.9874 27.5527 13.6202 27.9433 13.2553C27.3828 13.0765 25.6193 11.4667 25.0227 10.9347C24.7431 10.6854 24.4797 10.5469 24.442 10.3029C24.4269 10.2052 24.4479 10.0907 24.5185 9.94539C24.9085 9.14332 25.2372 8.40672 25.6997 7.63201C26.1028 6.95675 26.7414 6.14739 27.0743 5.51746C25.5401 5.80378 23.29 6.79879 21.806 7.41138C21.9506 7.79643 23.11 9.05495 23.4557 9.40181C23.9804 9.92813 24.0938 10.0979 24.2783 10.3224C23.4105 12.5604 22.8551 14.7461 22.838 17.949C22.9259 18.009 23.8371 16.8649 24.0135 16.6957C24.4327 16.2937 24.8243 15.8652 25.2616 15.4797Z" fill="white"/>
</svg>
