<svg width="306" height="446" viewBox="0 0 306 446" fill="none" xmlns="http://www.w3.org/2000/svg">
<g clip-path="url(#clip0_90_1530)" filter="url(#filter0_i_90_1530)">
<mask id="path-1-inside-1_90_1530" fill="white">
<path fill-rule="evenodd" clip-rule="evenodd" d="M300.311 212.622C307.808 217.326 307.808 228.249 300.311 232.952L-35.6224 443.72C-43.6143 448.734 -54 442.99 -54 433.555L-54 56.1637L59.5096 124.269L59.562 124.191C60.25 133.023 67.6347 139.975 76.6432 139.975C86.1057 139.975 93.7767 132.304 93.7767 122.842C93.7767 113.379 86.1057 105.708 76.6432 105.708C74.4606 105.708 72.3735 106.116 70.4537 106.86L-50.4306 37.1739C-52.1203 38.8637 -53.3101 40.5534 -54 44.3139L-54 12.0192C-54 2.58468 -43.6142 -3.15985 -35.6224 1.85429L268.6 192.726C267.507 192.243 266.352 191.792 265.112 191.376L164.818 245.143C156.772 241.114 146.88 244.009 142.322 251.903C137.591 260.098 140.398 270.577 148.593 275.308C156.788 280.04 167.267 277.232 171.998 269.037C173.245 266.876 173.969 264.557 174.208 262.226L283.268 202.054C282.739 201.684 282.224 201.318 281.719 200.957L300.311 212.622ZM2.90305 254.759C-1.82825 246.564 -12.307 243.756 -20.5018 248.488C-28.6966 253.219 -31.5044 263.698 -26.7731 271.892C-25.6793 273.787 -24.2784 275.393 -22.6695 276.686L-19.4567 433.389C-14.9123 430.812 -4.88815 424.583 -3.3133 422.679L-2.13172 277.45L-2.22552 277.443C5.0788 272.432 7.40721 262.56 2.90305 254.759ZM2.19999 130.936C2.33018 130.161 2.39795 129.365 2.39795 128.553C2.39795 120.667 -3.9945 114.275 -11.88 114.275C-19.7655 114.275 -26.1579 120.667 -26.1579 128.553C-26.1579 136.438 -19.7655 142.831 -11.88 142.831C-9.63459 142.831 -7.51025 142.312 -5.62008 141.389L30.954 164.248V322.731C29.1608 325.118 28.0982 328.085 28.0982 331.3C28.0982 339.185 34.4907 345.578 42.3762 345.578C50.2617 345.578 56.6541 339.185 56.6541 331.3C56.6541 326.629 54.411 322.481 50.9431 319.876V278.471L184.4 198.397C186.341 199.386 188.539 199.943 190.867 199.943C198.752 199.943 205.145 193.55 205.145 185.665C205.145 177.779 198.752 171.387 190.867 171.387C182.981 171.387 176.589 177.779 176.589 185.665C176.589 186.268 176.626 186.863 176.699 187.447L140.894 207.082L2.19999 130.936Z"/>
</mask>
<path d="M300.311 232.952L299.78 232.105L300.311 232.952ZM300.311 212.622L300.843 211.775L300.311 212.622ZM-35.6224 443.72L-35.091 444.567L-35.6224 443.72ZM-54 433.555H-55H-54ZM-54 56.1637L-53.4855 55.3062L-55 54.3975L-55 56.1637H-54ZM59.5096 124.269L58.9951 125.127L59.8127 125.617L60.3417 124.824L59.5096 124.269ZM59.562 124.191L60.559 124.113L60.3343 121.23L58.7299 123.636L59.562 124.191ZM70.4537 106.86L69.9543 107.727L70.3689 107.966L70.8151 107.793L70.4537 106.86ZM-50.4306 37.1739L-49.9312 36.3076L-50.5955 35.9246L-51.1377 36.4668L-50.4306 37.1739ZM-54 44.3139H-55L-53.0164 44.4943L-54 44.3139ZM-54 12.0192H-53H-54ZM-35.6224 1.85429L-36.1539 2.70137L-35.6224 1.85429ZM268.6 192.726L268.196 193.641L269.131 191.879L268.6 192.726ZM265.112 191.376L265.431 190.428L265.021 190.29L264.64 190.495L265.112 191.376ZM164.818 245.143L164.37 246.037L164.834 246.269L165.29 246.024L164.818 245.143ZM142.322 251.903L143.188 252.403L142.322 251.903ZM148.593 275.308L149.093 274.442L148.593 275.308ZM171.998 269.037L172.864 269.537L171.998 269.037ZM174.208 262.226L173.724 261.35L173.266 261.603L173.213 262.124L174.208 262.226ZM283.268 202.054L283.751 202.929L285.155 202.154L283.841 201.234L283.268 202.054ZM281.719 200.957L282.251 200.11L281.138 201.771L281.719 200.957ZM-20.5018 248.488L-20.0018 249.354H-20.0018L-20.5018 248.488ZM2.90305 254.759L3.76908 254.259L2.90305 254.759ZM-26.7731 271.892L-25.9071 271.392H-25.9071L-26.7731 271.892ZM-22.6695 276.686L-21.6697 276.665L-21.6793 276.198L-22.0433 275.906L-22.6695 276.686ZM-19.4567 433.389L-20.4565 433.409L-20.4221 435.086L-18.9635 434.259L-19.4567 433.389ZM-3.3133 422.679L-2.54257 423.316L-2.31622 423.042L-2.31333 422.687L-3.3133 422.679ZM-2.13172 277.45L-1.13175 277.458L-1.12406 276.512L-2.06743 276.452L-2.13172 277.45ZM-2.22552 277.443L-2.79129 276.619L-5.17639 278.255L-2.28981 278.441L-2.22552 277.443ZM2.19999 130.936L1.21382 130.77L1.09614 131.471L1.71873 131.812L2.19999 130.936ZM-5.62008 141.389L-5.09008 140.541L-5.56057 140.247L-6.05908 140.49L-5.62008 141.389ZM30.954 164.248H31.954V163.693L31.484 163.4L30.954 164.248ZM30.954 322.731L31.7535 323.332L31.954 323.065V322.731H30.954ZM50.9431 319.876H49.9431V320.376L50.3425 320.676L50.9431 319.876ZM50.9431 278.471L50.4286 277.614L49.9431 277.905V278.471H50.9431ZM184.4 198.397L184.853 197.506L184.36 197.255L183.885 197.54L184.4 198.397ZM176.699 187.447L177.18 188.323L177.775 187.997L177.691 187.323L176.699 187.447ZM140.894 207.082L140.413 207.958L140.894 208.222L141.375 207.958L140.894 207.082ZM300.843 233.799C308.964 228.704 308.964 216.871 300.843 211.775L299.78 213.469C306.652 217.781 306.652 227.794 299.78 232.105L300.843 233.799ZM-35.091 444.567L300.843 233.799L299.78 232.105L-36.1539 442.873L-35.091 444.567ZM-55 433.555C-55 443.776 -43.7488 449.999 -35.091 444.567L-36.1539 442.873C-43.4797 447.469 -53 442.204 -53 433.555H-55ZM-55 56.1637L-55 433.555H-53L-53 56.1637H-55ZM60.0241 123.412L-53.4855 55.3062L-54.5145 57.0212L58.9951 125.127L60.0241 123.412ZM58.7299 123.636L58.6776 123.715L60.3417 124.824L60.394 124.746L58.7299 123.636ZM76.6432 138.975C68.1609 138.975 61.2067 132.429 60.559 124.113L58.565 124.269C59.2933 133.617 67.1084 140.975 76.6432 140.975V138.975ZM92.7767 122.842C92.7767 131.752 85.5535 138.975 76.6432 138.975V140.975C86.658 140.975 94.7767 132.857 94.7767 122.842H92.7767ZM76.6432 106.708C85.5535 106.708 92.7767 113.931 92.7767 122.842H94.7767C94.7767 112.827 86.658 104.708 76.6432 104.708V106.708ZM70.8151 107.793C72.6214 107.093 74.5862 106.708 76.6432 106.708V104.708C74.3351 104.708 72.1255 105.14 70.0923 105.928L70.8151 107.793ZM-50.93 38.0403L69.9543 107.727L70.9531 105.994L-49.9312 36.3076L-50.93 38.0403ZM-53.0164 44.4943C-52.6852 42.6889 -52.2434 41.4315 -51.71 40.4419C-51.1782 39.4553 -50.5307 38.6883 -49.7235 37.8811L-51.1377 36.4668C-52.0202 37.3493 -52.8125 38.2721 -53.4705 39.4929C-54.1269 40.7107 -54.6249 42.1784 -54.9836 44.1334L-53.0164 44.4943ZM-55 12.0192L-55 44.3139H-53L-53 12.0192H-55ZM-35.0909 1.00721C-43.7487 -4.42477 -55 1.79847 -55 12.0192H-53C-53 3.3709 -43.4797 -1.89493 -36.1539 2.70137L-35.0909 1.00721ZM269.131 191.879L-35.0909 1.00721L-36.1539 2.70137L268.068 193.573L269.131 191.879ZM269.004 191.811C267.883 191.316 266.699 190.854 265.431 190.428L264.794 192.324C266.004 192.731 267.131 193.171 268.196 193.641L269.004 191.811ZM264.64 190.495L164.345 244.261L165.29 246.024L265.585 192.257L264.64 190.495ZM165.266 244.248C156.75 239.984 146.28 243.047 141.456 251.403L143.188 252.403C147.48 244.97 156.795 242.243 164.37 246.037L165.266 244.248ZM141.456 251.403C136.448 260.077 139.42 271.167 148.093 276.174L149.093 274.442C141.377 269.987 138.733 260.12 143.188 252.403L141.456 251.403ZM148.093 276.174C156.766 281.182 167.857 278.21 172.864 269.537L171.132 268.537C166.677 276.253 156.81 278.897 149.093 274.442L148.093 276.174ZM172.864 269.537C174.183 267.252 174.95 264.796 175.202 262.327L173.213 262.124C172.988 264.317 172.308 266.501 171.132 268.537L172.864 269.537ZM174.691 263.101L283.751 202.929L282.785 201.178L173.724 261.35L174.691 263.101ZM283.841 201.234C283.316 200.867 282.803 200.503 282.3 200.144L281.138 201.771C281.644 202.133 282.162 202.501 282.694 202.873L283.841 201.234ZM300.843 211.775L282.251 200.11L281.188 201.804L299.78 213.469L300.843 211.775ZM-20.0018 249.354C-12.2852 244.898 -2.41813 247.542 2.03703 255.259L3.76908 254.259C-1.23836 245.586 -12.3287 242.614 -21.0018 247.622L-20.0018 249.354ZM-25.9071 271.392C-30.3622 263.676 -27.7184 253.809 -20.0018 249.354L-21.0018 247.622C-29.6749 252.629 -32.6466 263.719 -27.6391 272.392L-25.9071 271.392ZM-22.0433 275.906C-23.5572 274.69 -24.8762 273.178 -25.9071 271.392L-27.6391 272.392C-26.4824 274.396 -24.9996 276.097 -23.2957 277.465L-22.0433 275.906ZM-18.4569 433.368L-21.6697 276.665L-23.6693 276.706L-20.4565 433.409L-18.4569 433.368ZM-4.08403 422.041C-4.38298 422.403 -5.19709 423.078 -6.44745 423.983C-7.65994 424.861 -9.18657 425.888 -10.8148 426.942C-14.0712 429.05 -17.6966 431.241 -19.9499 432.519L-18.9635 434.259C-16.6723 432.96 -13.0134 430.748 -9.72799 428.621C-8.08529 427.558 -6.52658 426.51 -5.27462 425.603C-4.06052 424.724 -3.03104 423.907 -2.54257 423.316L-4.08403 422.041ZM-3.13169 277.441L-4.31327 422.67L-2.31333 422.687L-1.13175 277.458L-3.13169 277.441ZM-2.28981 278.441L-2.19601 278.447L-2.06743 276.452L-2.16123 276.446L-2.28981 278.441ZM2.03703 255.259C6.27807 262.605 4.08586 271.9 -2.79129 276.619L-1.65974 278.268C6.07174 272.963 8.53636 262.516 3.76908 254.259L2.03703 255.259ZM1.39795 128.553C1.39795 129.309 1.33484 130.05 1.21382 130.77L3.18617 131.101C3.32552 130.272 3.39795 129.42 3.39795 128.553H1.39795ZM-11.88 115.275C-4.54679 115.275 1.39795 121.22 1.39795 128.553H3.39795C3.39795 120.115 -3.44221 113.275 -11.88 113.275V115.275ZM-25.1579 128.553C-25.1579 121.22 -19.2132 115.275 -11.88 115.275V113.275C-20.3178 113.275 -27.1579 120.115 -27.1579 128.553H-25.1579ZM-11.88 141.831C-19.2132 141.831 -25.1579 135.886 -25.1579 128.553H-27.1579C-27.1579 136.991 -20.3178 143.831 -11.88 143.831V141.831ZM-6.05908 140.49C-7.81554 141.349 -9.79004 141.831 -11.88 141.831V143.831C-9.47914 143.831 -7.20496 143.276 -5.18108 142.287L-6.05908 140.49ZM31.484 163.4L-5.09008 140.541L-6.15008 142.237L30.424 165.096L31.484 163.4ZM31.954 322.731V164.248H29.954V322.731H31.954ZM29.0982 331.3C29.0982 328.309 30.086 325.551 31.7535 323.332L30.1545 322.131C28.2357 324.684 27.0982 327.861 27.0982 331.3H29.0982ZM42.3762 344.578C35.043 344.578 29.0982 338.633 29.0982 331.3H27.0982C27.0982 339.737 33.9384 346.578 42.3762 346.578V344.578ZM55.6541 331.3C55.6541 338.633 49.7094 344.578 42.3762 344.578V346.578C50.814 346.578 57.6541 339.737 57.6541 331.3H55.6541ZM50.3425 320.676C53.5698 323.1 55.6541 326.956 55.6541 331.3H57.6541C57.6541 326.301 55.2522 321.863 51.5437 319.077L50.3425 320.676ZM49.9431 278.471V319.876H51.9431V278.471H49.9431ZM183.885 197.54L50.4286 277.614L51.4576 279.329L184.914 199.255L183.885 197.54ZM190.867 198.943C188.7 198.943 186.658 198.424 184.853 197.506L183.946 199.289C186.025 200.347 188.378 200.943 190.867 200.943V198.943ZM204.145 185.665C204.145 192.998 198.2 198.943 190.867 198.943V200.943C199.305 200.943 206.145 194.102 206.145 185.665H204.145ZM190.867 172.387C198.2 172.387 204.145 178.331 204.145 185.665H206.145C206.145 177.227 199.305 170.387 190.867 170.387V172.387ZM177.589 185.665C177.589 178.331 183.534 172.387 190.867 172.387V170.387C182.429 170.387 175.589 177.227 175.589 185.665H177.589ZM177.691 187.323C177.624 186.78 177.589 186.227 177.589 185.665H175.589C175.589 186.31 175.629 186.945 175.707 187.57L177.691 187.323ZM141.375 207.958L177.18 188.323L176.218 186.57L140.413 206.205L141.375 207.958ZM1.71873 131.812L140.413 207.958L141.375 206.205L2.68126 130.059L1.71873 131.812Z" fill="url(#paint0_linear_90_1530)" fill-opacity="0.5" mask="url(#path-1-inside-1_90_1530)"/>
<path d="M116.532 214.38C117.464 214.969 117.464 216.328 116.532 216.917L53.7438 256.566C52.745 257.197 51.4429 256.479 51.4429 255.298L51.4429 175.999C51.4429 174.818 52.745 174.1 53.7438 174.731L116.532 214.38Z" stroke="url(#paint1_linear_90_1530)" stroke-opacity="0.5"/>
</g>
<defs>
<filter id="filter0_i_90_1530" x="-54" y="0" width="359.934" height="449.575" filterUnits="userSpaceOnUse" color-interpolation-filters="sRGB">
<feFlood flood-opacity="0" result="BackgroundImageFix"/>
<feBlend mode="normal" in="SourceGraphic" in2="BackgroundImageFix" result="shape"/>
<feColorMatrix in="SourceAlpha" type="matrix" values="0 0 0 0 0 0 0 0 0 0 0 0 0 0 0 0 0 0 127 0" result="hardAlpha"/>
<feOffset dy="4"/>
<feGaussianBlur stdDeviation="2"/>
<feComposite in2="hardAlpha" operator="arithmetic" k2="-1" k3="1"/>
<feColorMatrix type="matrix" values="0 0 0 0 0 0 0 0 0 0 0 0 0 0 0 0 0 0 0.2 0"/>
<feBlend mode="normal" in2="shape" result="effect1_innerShadow_90_1530"/>
</filter>
<linearGradient id="paint0_linear_90_1530" x1="125.967" y1="0" x2="125.967" y2="445.575" gradientUnits="userSpaceOnUse">
<stop stop-color="white"/>
<stop offset="1" stop-color="#999999"/>
</linearGradient>
<linearGradient id="paint1_linear_90_1530" x1="119.477" y1="215.648" x2="28.0982" y2="215.648" gradientUnits="userSpaceOnUse">
<stop stop-color="white"/>
<stop offset="1" stop-color="#999999"/>
</linearGradient>
<clipPath id="clip0_90_1530">
<rect width="359.934" height="445.575" fill="white" transform="translate(-54)"/>
</clipPath>
</defs>
</svg>
