<svg width="12" height="9" viewBox="0 0 12 9" fill="none" xmlns="http://www.w3.org/2000/svg">
<path d="M0.424 7.96184C0.296 7.67384 0.2 7.34318 0.136 6.96984C0.0826667 6.59651 0.056 6.21784 0.056 5.83384C0.056 4.56451 0.408 3.41784 1.112 2.39384C1.82667 1.35918 2.888 0.585843 4.296 0.073843C4.59467 0.223177 4.81867 0.457844 4.968 0.777843C5.128 1.08718 5.19733 1.39651 5.176 1.70584C4.824 1.87651 4.47733 2.09518 4.136 2.36184C3.79467 2.62851 3.512 2.93784 3.288 3.28984C3.064 3.63118 2.94667 4.00984 2.936 4.42584C3.13867 4.45784 3.37867 4.50584 3.656 4.56984C3.93333 4.62318 4.136 4.70318 4.264 4.80984C4.36 4.95918 4.43467 5.18318 4.488 5.48184C4.552 5.78051 4.584 6.06851 4.584 6.34584C4.584 6.60184 4.55733 6.90051 4.504 7.24184C4.45067 7.57251 4.37067 7.81251 4.264 7.96184C4.08267 8.06851 3.79467 8.16451 3.4 8.24984C3.016 8.33518 2.65867 8.37784 2.328 8.37784C2.008 8.37784 1.65067 8.34051 1.256 8.26584C0.872 8.19118 0.594667 8.08984 0.424 7.96184ZM6.632 7.96184C6.504 7.67384 6.408 7.34318 6.344 6.96984C6.29067 6.59651 6.264 6.21784 6.264 5.83384C6.264 4.56451 6.616 3.41784 7.32 2.39384C8.03467 1.35918 9.096 0.585843 10.504 0.073843C10.8027 0.223177 11.0267 0.457844 11.176 0.777843C11.336 1.08718 11.4053 1.39651 11.384 1.70584C11.032 1.87651 10.6853 2.09518 10.344 2.36184C10.0027 2.62851 9.72 2.93784 9.496 3.28984C9.272 3.63118 9.15467 4.00984 9.144 4.42584C9.34667 4.45784 9.58667 4.50584 9.864 4.56984C10.1413 4.62318 10.344 4.70318 10.472 4.80984C10.568 4.95918 10.6427 5.18318 10.696 5.48184C10.76 5.78051 10.792 6.06851 10.792 6.34584C10.792 6.60184 10.7653 6.90051 10.712 7.24184C10.6587 7.57251 10.5787 7.81251 10.472 7.96184C10.2907 8.06851 10.0027 8.16451 9.608 8.24984C9.224 8.33518 8.86667 8.37784 8.536 8.37784C8.216 8.37784 7.85867 8.34051 7.464 8.26584C7.08 8.19118 6.80267 8.08984 6.632 7.96184Z" fill="#EFEFEF"/>
</svg>
