<svg width="24" height="24" viewBox="0 0 24 24" fill="none" xmlns="http://www.w3.org/2000/svg">
<rect x="0.25" y="0.25" width="23.5" height="23.5" fill="#303030" stroke="url(#paint0_linear_78_130)" stroke-width="0.5"/>
<g clip-path="url(#clip0_78_130)">
<path fill-rule="evenodd" clip-rule="evenodd" d="M9.3779 16.9629C9.21293 16.9492 9.05691 16.8789 8.93863 16.7627C8.80646 16.6338 8.73292 16.458 8.73292 16.2744V15.1944C8.73292 14.4239 8.41292 13.6856 7.84844 13.1514C6.70856 12.0782 6 10.5684 6 8.89645C6 5.64148 8.68809 3 11.9995 3C15.3109 3 18 5.64148 18 8.89645C18 10.5683 17.2904 12.0782 16.1506 13.1514C15.5861 13.6866 15.2671 14.4239 15.2671 15.1944C15.2661 15.5889 15.2661 15.9854 15.2661 16.2744C15.2661 16.6377 14.9829 16.9346 14.6211 16.9629V17.3789H14.7165C14.8537 17.3789 14.966 17.4893 14.966 17.624C14.966 17.7598 14.8537 17.8701 14.7165 17.8701H14.6211V18.2832H14.7165C14.8537 18.2832 14.966 18.3936 14.966 18.5283C14.966 18.6641 14.8537 18.7744 14.7165 18.7744H14.6211V18.9922C14.6211 19.3418 14.3478 19.6299 14 19.6592C13.6651 20.4463 12.875 21 11.9528 21C11.0246 21 10.2296 20.4385 9.89862 19.6436C9.60048 19.5732 9.37787 19.3076 9.37787 18.9922V18.7744H9.28247C9.14533 18.7744 9.03303 18.6641 9.03303 18.5283C9.03303 18.3936 9.14533 18.2832 9.28247 18.2832H9.37787V17.8701H9.28247C9.14533 17.8701 9.03303 17.7598 9.03303 17.624C9.03303 17.4893 9.14533 17.3789 9.28247 17.3789H9.37787L9.3779 16.9629ZM13.0073 16.4746H14.5636C14.6759 16.4746 14.7673 16.3858 14.7673 16.2744C14.7673 15.9854 14.7673 15.5889 14.7683 15.1944C14.7683 14.2901 15.142 13.4249 15.8048 12.7979C16.8493 11.8136 17.5002 10.4288 17.5002 8.8967C17.5002 5.91323 15.0356 3.4915 11.9996 3.4915C8.96364 3.4915 6.49904 5.91335 6.49904 8.8967C6.49904 10.4289 7.14998 11.8137 8.19446 12.7979C8.85732 13.4249 9.23196 14.2901 9.23196 15.1944V16.2744C9.23196 16.3281 9.25383 16.3789 9.29159 16.416C9.32936 16.4532 9.38103 16.4746 9.43569 16.4746H10.992V13.5314C10.992 12.6134 10.3907 11.9172 9.84018 11.2502C9.20515 10.4816 8.63769 9.74434 8.78677 8.86055C8.79571 8.81074 8.81957 8.76387 8.85634 8.72774C8.91398 8.67207 8.99447 8.64668 9.07398 8.65938C9.12565 8.66817 9.17236 8.69161 9.20913 8.72774L9.44963 8.96309C9.6295 9.13887 9.92069 9.13887 10.1006 8.96309L10.3401 8.72774C10.4375 8.63204 10.5955 8.63204 10.6929 8.72774L10.9334 8.96309C11.1132 9.13887 11.4034 9.13887 11.5833 8.96309L11.8238 8.72774C11.9212 8.63204 12.0792 8.63204 12.1756 8.72774L12.4161 8.96309C12.596 9.13887 12.8871 9.13887 13.067 8.96309L13.3065 8.72774C13.4039 8.63204 13.5619 8.63204 13.6593 8.72774L13.8988 8.96309C14.0787 9.13887 14.3699 9.13887 14.5497 8.96309L14.7902 8.72774C14.827 8.69161 14.8737 8.66817 14.9254 8.65938C15.0049 8.64668 15.0854 8.67207 15.143 8.72774C15.1798 8.76387 15.2037 8.81074 15.2126 8.86055C15.3617 9.74434 14.7952 10.4816 14.1592 11.2502C13.6076 11.9172 13.0074 12.6134 13.0074 13.5314L13.0073 16.4746ZM14.1223 17.3789V16.9659H9.87674V17.3789H14.1223ZM14.1223 18.2832V17.8701H9.87674V18.2832H14.1223ZM13.8302 19.1709H13.9405C14.0409 19.1709 14.1223 19.0908 14.1223 18.9922V18.7744H9.87675V18.9922C9.87675 19.0908 9.95824 19.1709 10.0586 19.1709H10.0755H10.0854H13.8202H13.8302ZM10.4633 19.6611C10.7595 20.168 11.316 20.5098 11.953 20.5098C12.59 20.5098 13.1465 20.168 13.4427 19.6611H10.4633ZM11.4909 16.4747H12.5085V14.7022H11.4909V16.4747ZM11.4909 14.212H12.5085V13.5313C12.5085 12.4962 13.1505 11.6924 13.7716 10.9406C14.0549 10.5988 14.3301 10.2677 14.518 9.92301C14.5985 9.77262 14.6631 9.61932 14.7008 9.46109C14.3341 9.66715 13.8591 9.61636 13.546 9.30972L13.4824 9.24723L13.4198 9.30972C13.0442 9.6779 12.438 9.6779 12.0633 9.30972L11.9997 9.24723L11.9361 9.30972C11.5614 9.6779 10.9552 9.6779 10.5796 9.30972L10.516 9.24723L10.4534 9.30972C10.1393 9.61637 9.6653 9.66715 9.29859 9.46109C9.33635 9.61929 9.40095 9.77261 9.48244 9.92301C9.66928 10.2677 9.94455 10.5988 10.2278 10.9406C10.8499 11.6925 11.4909 12.4962 11.4909 13.5313L11.4909 14.212Z" fill="url(#paint1_linear_78_130)"/>
</g>
<defs>
<linearGradient id="paint0_linear_78_130" x1="12" y1="24" x2="12" y2="0" gradientUnits="userSpaceOnUse">
<stop stop-color="white"/>
<stop offset="1" stop-color="#999999"/>
</linearGradient>
<linearGradient id="paint1_linear_78_130" x1="18" y1="12" x2="6" y2="12" gradientUnits="userSpaceOnUse">
<stop stop-color="white"/>
<stop offset="1" stop-color="#999999"/>
</linearGradient>
<clipPath id="clip0_78_130">
<rect width="12" height="18" fill="white" transform="translate(6 3)"/>
</clipPath>
</defs>
</svg>
