<svg width="24" height="16" viewBox="0 0 24 16" fill="none" xmlns="http://www.w3.org/2000/svg">
<path d="M1.67442 0C1.49759 0 1.32837 0.0310215 1.1686 0.0865385L11.2151 10.7115C11.6788 11.2011 12.3394 11.2011 12.8023 10.7115L22.8314 0.0865385C22.6716 0.0310215 22.5024 0 22.3256 0H1.67442ZM0.270349 0.846154C0.101041 1.13478 0 1.4754 0 1.84615V14.1538C0 14.5197 0.0964342 14.858 0.261628 15.1442L6.88954 7.83652L0.270349 0.846154ZM23.7297 0.846154L17.1192 7.84615L23.7384 15.1442C23.9036 14.858 24 14.5197 24 14.1538V1.84615C24 1.4754 23.899 1.13478 23.7297 0.846154ZM7.69186 8.69231L1.15116 15.9038C1.3162 15.9635 1.49083 16 1.67442 16H22.3256C22.5092 16 22.6838 15.9635 22.8488 15.9038L16.3081 8.69231L13.5698 11.5962C12.6977 12.5184 11.32 12.5172 10.4477 11.5962L7.69186 8.69231Z" fill="#868686"/>
</svg>
