<svg width="25" height="24" viewBox="0 0 25 24" fill="none" xmlns="http://www.w3.org/2000/svg">
<rect x="0.25" y="0.25" width="23.7717" height="23.5" fill="#303030" stroke="url(#paint0_linear_78_119)" stroke-width="0.5"/>
<g clip-path="url(#clip0_78_119)">
<path fill-rule="evenodd" clip-rule="evenodd" d="M5.43876 12.2709C5.33065 12.5318 5.07099 12.7154 4.76882 12.7154C4.36963 12.7154 4.04529 12.3947 4.04529 12C4.04529 11.6053 4.36963 11.2846 4.76882 11.2846C5.07099 11.2846 5.33065 11.4682 5.43876 11.7291H7.6893V11.0813H6.72551C6.64835 11.0813 6.57443 11.0488 6.52268 10.9922L5.98349 10.4051H5.1366C4.98551 10.4051 4.86262 10.2836 4.86262 10.1342C4.86262 9.98435 4.98551 9.86329 5.1366 9.86329H6.10501C6.18217 9.86329 6.25609 9.89527 6.30784 9.95192L6.84702 10.5394H7.6893V9.77785H7.15289C7.07573 9.77785 7.0018 9.74587 6.95006 9.68922L6.46631 9.16247H4.88156C4.73001 9.16247 4.60758 9.04094 4.60758 8.89155C4.60758 8.7417 4.73001 8.62064 4.88156 8.62064H6.58783C6.66498 8.62064 6.73891 8.65262 6.79066 8.70927L7.27394 9.23602H7.6893V7.87414C7.6893 7.72429 7.81174 7.60322 7.96328 7.60322H9.34059V7.19251L8.80787 6.71464C8.75058 6.66347 8.71824 6.59037 8.71824 6.51408V4.82691C8.71824 4.67706 8.84067 4.55599 8.99222 4.55599C9.1433 4.55599 9.2662 4.67706 9.2662 4.82691V6.39392L9.79892 6.87225C9.85621 6.92342 9.88855 6.99652 9.88855 7.07281V7.60322H10.6588V6.77037L10.0646 6.23722C10.0073 6.18605 9.97495 6.11296 9.97495 6.03666V5.07909C9.97495 4.9297 10.0974 4.80818 10.2489 4.80818C10.4 4.80818 10.5229 4.9297 10.5229 5.07909V5.91651L11.1166 6.44966C11.1739 6.50083 11.2067 6.57392 11.2067 6.65022V7.60322H11.8619V5.37788C11.5981 5.27097 11.4123 5.01422 11.4123 4.71544C11.4123 4.32071 11.7367 4 12.1359 4C12.535 4 12.8594 4.32071 12.8594 4.71544C12.8594 5.01422 12.6737 5.27097 12.4098 5.37788V7.60322H13.065V6.65022C13.065 6.57392 13.0978 6.50083 13.1551 6.44966L13.7488 5.91651V5.07909C13.7488 4.9297 13.8717 4.80818 14.0228 4.80818C14.1743 4.80818 14.2968 4.9297 14.2968 5.07909V6.03666C14.2968 6.11296 14.2644 6.18605 14.2071 6.23722L13.613 6.77037V7.60322H14.3832V7.07281C14.3832 6.99652 14.4155 6.92342 14.4728 6.87225L15.0055 6.39392V4.82691C15.0055 4.67706 15.1284 4.55599 15.2795 4.55599C15.431 4.55599 15.5535 4.67706 15.5535 4.82691V6.51408C15.5535 6.59037 15.5211 6.66347 15.4638 6.71464L14.9311 7.19251V7.60322H16.3084C16.46 7.60322 16.5824 7.72429 16.5824 7.87414V9.23602H16.9978L17.4811 8.70927C17.5328 8.65262 17.6067 8.62064 17.6839 8.62064H19.3901C19.5417 8.62064 19.6641 8.7417 19.6641 8.89155C19.6641 9.04094 19.5417 9.16247 19.3901 9.16247H17.8054L17.3216 9.68922C17.2699 9.74587 17.196 9.77785 17.1188 9.77785H16.5824V10.5394H17.4247L17.9639 9.95192C18.0156 9.89527 18.0895 9.86329 18.1667 9.86329H19.1351C19.2862 9.86329 19.4091 9.98435 19.4091 10.1342C19.4091 10.2836 19.2862 10.4051 19.1351 10.4051H18.2882L17.749 10.9922C17.6973 11.0488 17.6234 11.0813 17.5462 11.0813H16.5824V11.7291H18.8329C18.9411 11.4682 19.2007 11.2846 19.5029 11.2846C19.9021 11.2846 20.2264 11.6053 20.2264 12C20.2264 12.3947 19.9021 12.7154 19.5029 12.7154C19.2007 12.7154 18.9411 12.5318 18.8329 12.2709H16.5824V12.9187H17.5462C17.6234 12.9187 17.6973 12.9512 17.749 13.0078L18.2882 13.5949H19.1351C19.2862 13.5949 19.4091 13.7164 19.4091 13.8658C19.4091 14.0156 19.2862 14.1367 19.1351 14.1367H18.1667C18.0895 14.1367 18.0156 14.1047 17.9639 14.0481L17.4247 13.4606H16.5824V14.2221H17.1188C17.196 14.2221 17.2699 14.2541 17.3216 14.3108L17.8054 14.8375H19.3901C19.5417 14.8375 19.6641 14.9591 19.6641 15.1084C19.6641 15.2583 19.5417 15.3794 19.3901 15.3794H17.6839C17.6067 15.3794 17.5328 15.3474 17.4811 15.2907L16.9978 14.764H16.5824V16.1259C16.5824 16.2757 16.46 16.3968 16.3084 16.3968H14.9311V16.8075L15.4638 17.2854C15.5211 17.3365 15.5535 17.4096 15.5535 17.4859V19.1731C15.5535 19.3229 15.431 19.444 15.2795 19.444C15.1284 19.444 15.0055 19.3229 15.0055 19.1731V17.6061L14.4728 17.1277C14.4155 17.0766 14.3832 17.0035 14.3832 16.9272V16.3968H13.613V17.2296L14.2071 17.7628C14.2644 17.8139 14.2968 17.887 14.2968 17.9633V18.9209C14.2968 19.0703 14.1743 19.1918 14.0228 19.1918C13.8717 19.1918 13.7488 19.0703 13.7488 18.9209V18.0835L13.1551 17.5503C13.0978 17.4992 13.065 17.4261 13.065 17.3498V16.3968H12.4098V18.6221C12.6737 18.729 12.8594 18.9858 12.8594 19.2846C12.8594 19.6793 12.535 20 12.1359 20C11.7367 20 11.4123 19.6793 11.4123 19.2846C11.4123 18.9858 11.5981 18.729 11.8619 18.6221V16.3968H11.2067V17.3498C11.2067 17.4261 11.1739 17.4992 11.1166 17.5503L10.5229 18.0835V18.9209C10.5229 19.0703 10.4 19.1918 10.2489 19.1918C10.0974 19.1918 9.97495 19.0703 9.97495 18.9209V17.9633C9.97495 17.887 10.0073 17.8139 10.0646 17.7628L10.6588 17.2296V16.3968H9.88855V16.9272C9.88855 17.0035 9.85621 17.0766 9.79892 17.1277L9.2662 17.6061V19.1731C9.2662 19.3229 9.1433 19.444 8.99222 19.444C8.84067 19.444 8.71824 19.3229 8.71824 19.1731V17.4859C8.71824 17.4096 8.75058 17.3365 8.80787 17.2854L9.34059 16.8075V16.3968H7.96328C7.81174 16.3968 7.6893 16.2757 7.6893 16.1259V14.764H7.27394L6.79066 15.2907C6.73891 15.3474 6.66498 15.3794 6.58783 15.3794H4.88156C4.73001 15.3794 4.60758 15.2583 4.60758 15.1084C4.60758 14.9591 4.73001 14.8375 4.88156 14.8375H6.46631L6.95006 14.3108C7.0018 14.2541 7.07573 14.2221 7.15289 14.2221H7.6893V13.4606H6.84702L6.30784 14.0481C6.25609 14.1047 6.18217 14.1367 6.10501 14.1367H5.1366C4.98551 14.1367 4.86262 14.0156 4.86262 13.8658C4.86262 13.7164 4.98551 13.5949 5.1366 13.5949H5.98349L6.52268 13.0078C6.57443 12.9512 6.64835 12.9187 6.72551 12.9187H7.6893V12.2709H5.43876ZM4.94439 12C4.94439 11.9041 4.86585 11.8264 4.76882 11.8264C4.6718 11.8264 4.59325 11.9041 4.59325 12C4.59325 12.0959 4.6718 12.1736 4.76882 12.1736C4.86585 12.1736 4.94439 12.0959 4.94439 12ZM8.23726 8.14505V15.8549H16.0344V8.14505H8.23726ZM12.1359 4.88904C12.2329 4.88904 12.3114 4.81138 12.3114 4.71544C12.3114 4.6195 12.2329 4.54183 12.1359 4.54183C12.0388 4.54183 11.9603 4.6195 11.9603 4.71544C11.9603 4.81138 12.0388 4.88904 12.1359 4.88904ZM19.3273 12C19.3273 12.0959 19.4059 12.1736 19.5029 12.1736C19.5999 12.1736 19.6785 12.0959 19.6785 12C19.6785 11.9041 19.5999 11.8264 19.5029 11.8264C19.4059 11.8264 19.3273 11.9041 19.3273 12ZM12.1359 19.111C12.0388 19.111 11.9603 19.1886 11.9603 19.2846C11.9603 19.3805 12.0388 19.4582 12.1359 19.4582C12.2329 19.4582 12.3114 19.3805 12.3114 19.2846C12.3114 19.1886 12.2329 19.111 12.1359 19.111ZM14.6326 9.80207V14.1979C14.6326 14.3478 14.5102 14.4688 14.3587 14.4688H9.91304C9.76149 14.4688 9.63906 14.3478 9.63906 14.1979V9.80207C9.63906 9.65222 9.76149 9.53115 9.91304 9.53115H14.3587C14.5102 9.53115 14.6326 9.65222 14.6326 9.80207Z" fill="url(#paint1_linear_78_119)"/>
</g>
<defs>
<linearGradient id="paint0_linear_78_119" x1="12.1358" y1="0" x2="12.1358" y2="24" gradientUnits="userSpaceOnUse">
<stop stop-color="white"/>
<stop offset="1" stop-color="#999999"/>
</linearGradient>
<linearGradient id="paint1_linear_78_119" x1="12.1359" y1="20" x2="12.1359" y2="4" gradientUnits="userSpaceOnUse">
<stop stop-color="white"/>
<stop offset="1" stop-color="#999999"/>
</linearGradient>
<clipPath id="clip0_78_119">
<rect width="16.1811" height="16" fill="white" transform="translate(4.04529 4)"/>
</clipPath>
</defs>
</svg>
